<?xml version="1.0" standalone="no"?>
<!DOCTYPE svg PUBLIC "-//W3C//DTD SVG 20010904//EN"
 "http://www.w3.org/TR/2001/REC-SVG-20010904/DTD/svg10.dtd">
<svg version="1.0" xmlns="http://www.w3.org/2000/svg"
 width="693.000000pt" height="696.000000pt" viewBox="0 0 693.000000 696.000000"
 preserveAspectRatio="xMidYMid meet">

<g transform="translate(0.000000,696.000000) scale(0.100000,-0.100000)"
fill="#000000" stroke="none">
<path d="M3075 4894 l-190 -124 -3 42 c-5 93 0 89 -110 86 l-97 -3 -5 -134 -5
-133 -109 -70 -109 -71 -193 -1 c-106 0 -195 -3 -197 -6 -3 -3 19 -113 49
-245 133 -584 166 -725 219 -960 32 -137 74 -322 94 -410 l37 -160 40 2 c21 1
125 3 229 5 193 2 302 -10 429 -47 77 -23 65 -10 -21 23 -170 65 -313 92 -483
92 l-118 0 -12 48 c-12 50 -111 460 -185 772 -24 102 -76 317 -114 479 -39
162 -71 298 -71 302 0 16 173 29 330 25 135 -3 183 -8 265 -29 157 -40 286
-92 413 -167 28 -17 52 -28 52 -25 0 13 -133 101 -213 141 -112 57 -241 100
-380 128 l-110 22 387 252 386 252 253 -163 c138 -90 330 -215 425 -277 l174
-113 -79 -27 c-97 -33 -260 -116 -335 -172 -31 -24 -55 -44 -53 -46 1 -2 26
11 55 28 146 86 337 156 499 184 146 25 475 17 502 -12 4 -4 -12 -86 -35 -182
-24 -96 -71 -290 -104 -430 -169 -707 -201 -841 -218 -912 l-18 -78 -115 0
c-140 0 -269 -20 -395 -60 -89 -29 -186 -67 -186 -74 0 -2 35 7 78 19 133 39
254 53 427 50 88 -1 183 -6 211 -10 l52 -7 36 153 c20 85 63 273 96 419 33
146 68 303 79 350 11 47 38 164 61 260 88 383 130 570 130 583 0 19 -102 29
-248 26 l-108 -2 -149 100 c-415 276 -647 424 -661 419 -7 -3 -47 -28 -89 -56
-41 -27 -77 -50 -80 -50 -4 0 -48 27 -99 60 -51 33 -99 60 -107 59 -8 0 -99
-56 -204 -125z m1025 -212 c168 -111 303 -202 300 -203 -3 0 -52 -9 -109 -19
l-105 -18 -333 216 -332 216 72 46 72 46 65 -41 c36 -23 202 -132 370 -243z
m-1260 119 c0 -65 1 -64 -92 -120 l-38 -23 0 101 0 101 65 0 65 0 0 -59z"/>
<path d="M1793 4053 c-25 -2 -43 -9 -43 -16 0 -7 9 -54 21 -105 l22 -93 24 23
c21 20 24 29 18 64 -6 43 2 54 43 54 32 0 43 15 36 48 -7 35 -8 35 -121 25z"/>
<path d="M4966 4029 c-7 -36 4 -49 42 -49 12 0 25 -7 29 -16 5 -14 -23 -133
-123 -518 -33 -127 -34 -140 -20 -154 15 -15 18 -15 38 5 16 17 37 84 85 275
l63 252 -28 31 -27 30 26 -23 c15 -13 29 -20 32 -15 9 16 51 192 47 196 -3 3
-39 8 -81 12 l-76 7 -7 -33z"/>
<path d="M1730 3903 c-8 -1 -40 -5 -71 -8 l-57 -6 25 -92 c13 -51 26 -102 28
-115 6 -39 140 -567 145 -572 3 -3 6 -14 6 -25 2 -23 254 -1028 259 -1034 2
-2 21 10 43 27 52 41 183 122 262 162 36 18 81 46 100 64 19 17 26 21 16 9
-24 -29 -21 -29 50 3 33 14 118 46 189 70 72 23 123 43 115 43 -42 2 -302 -71
-327 -92 -7 -5 -13 -7 -13 -4 0 11 -113 -33 -245 -97 -74 -35 -137 -61 -139
-57 -3 4 -21 70 -40 147 -19 76 -69 272 -111 434 -42 162 -94 363 -115 445
-21 83 -64 247 -94 365 -31 118 -56 220 -56 226 0 7 16 15 35 18 32 6 35 9 29
34 -12 46 -19 58 -34 55z"/>
<path d="M5126 3901 c-2 -3 -7 -23 -11 -43 -7 -36 -6 -37 29 -43 20 -4 36 -10
36 -13 0 -3 -14 -57 -31 -120 -17 -63 -37 -142 -44 -176 -8 -33 -25 -104 -40
-156 -14 -52 -49 -183 -76 -290 -28 -107 -74 -289 -104 -405 -83 -322 -124
-477 -127 -480 -2 -2 -64 26 -138 62 -151 73 -374 150 -524 182 -55 11 -101
20 -102 18 -2 -2 47 -18 109 -36 242 -72 489 -191 655 -314 29 -22 54 -38 55
-36 4 7 110 433 113 454 1 11 3 20 4 20 2 0 4 9 6 20 1 11 28 117 59 235 32
118 63 242 70 275 7 33 32 131 55 218 23 87 47 186 55 220 7 34 30 125 51 202
55 207 55 192 -2 200 -27 3 -59 7 -72 9 -12 2 -24 1 -26 -3z"/>
<path d="M1822 3847 c-12 -13 -22 -29 -22 -36 0 -7 18 -81 41 -165 22 -83 49
-189 59 -235 14 -61 26 -91 44 -110 23 -22 28 -24 40 -11 16 16 9 49 -90 420
-45 168 -44 167 -72 137z"/>
<path d="M2953 3572 l-61 -157 26 -3 c15 -2 29 3 34 12 13 22 128 23 128 1 0
-10 10 -15 31 -15 21 0 30 4 26 13 -3 6 -30 77 -61 157 -31 79 -58 145 -59
147 -1 1 -30 -69 -64 -155z m77 -7 c5 -14 13 -37 16 -50 6 -23 3 -25 -30 -25
-20 0 -36 1 -36 3 0 10 33 97 36 97 3 0 9 -11 14 -25z"/>
<path d="M3180 3601 c0 -125 1 -129 26 -154 49 -50 135 -47 179 5 24 28 25 35
25 154 l0 124 -25 0 -25 0 0 -119 c0 -113 -1 -121 -22 -135 -12 -9 -32 -16
-43 -16 -11 0 -31 7 -43 16 -21 14 -22 22 -22 135 l0 119 -25 0 -25 0 0 -129z"/>
<path d="M3480 3571 l0 -161 30 0 30 0 0 65 c0 58 2 65 20 65 15 0 27 -17 49
-65 26 -56 33 -65 56 -65 30 0 29 12 -10 89 l-22 45 28 24 c38 31 40 88 5 129
-22 25 -31 28 -105 31 l-81 4 0 -161z m141 99 c11 -6 19 -21 19 -35 0 -28 -26
-45 -69 -45 -30 0 -31 1 -31 45 0 44 1 45 31 45 17 0 39 -5 50 -10z"/>
<path d="M3831 3713 c-151 -79 -87 -315 81 -300 26 2 59 12 73 21 25 17 26 18
10 36 -16 18 -20 18 -47 4 -69 -36 -148 14 -148 93 0 55 12 78 50 98 36 19 63
19 99 0 26 -13 30 -13 45 4 16 17 15 19 -11 36 -40 26 -110 30 -152 8z"/>
<path d="M1930 3284 c0 -17 17 -36 24 -26 3 5 -1 15 -9 22 -8 7 -15 9 -15 4z"/>
<path d="M1984 3279 c-3 -6 4 -21 16 -33 20 -18 22 -19 16 -3 -3 10 -6 25 -6
33 0 17 -16 19 -26 3z"/>
<path d="M4867 3263 c-7 -35 -4 -38 17 -14 14 15 14 20 2 30 -11 9 -15 6 -19
-16z"/>
<path d="M4924 3279 c-3 -6 -2 -15 4 -21 6 -6 11 -2 15 11 5 22 -7 29 -19 10z"/>
<path d="M2650 3260 c0 -7 277 -10 810 -10 533 0 810 3 810 10 0 7 -277 10
-810 10 -533 0 -810 -3 -810 -10z"/>
<path d="M1952 3247 c-7 -8 -1 -48 23 -137 18 -69 50 -196 71 -282 21 -87 41
-158 44 -158 4 0 19 13 34 28 l27 29 -45 164 c-25 90 -52 196 -61 234 -11 49
-25 80 -45 103 -34 36 -34 36 -48 19z"/>
<path d="M4877 3232 c-22 -23 -37 -69 -88 -271 l-62 -243 31 -31 c23 -22 32
-27 35 -16 2 8 34 136 71 284 75 300 77 344 13 277z"/>
<path d="M2122 2677 l-31 -32 19 -70 c10 -38 26 -105 35 -147 9 -42 25 -88 36
-102 l20 -25 57 26 c31 14 126 50 211 79 135 47 200 78 187 91 -6 7 -192 -43
-291 -77 -139 -48 -123 -60 -171 127 l-41 162 -31 -32z"/>
<path d="M4720 2708 c0 -13 -80 -321 -85 -326 -2 -2 -28 5 -57 17 -54 21 -265
83 -328 96 l-35 7 21 -22 c12 -12 80 -41 166 -70 79 -26 177 -64 216 -84 79
-40 82 -41 82 -25 0 5 -6 7 -12 3 -9 -5 -8 -2 1 9 8 10 33 88 57 175 l43 157
-35 35 c-19 19 -34 32 -34 28z"/>
<path d="M2800 2521 c-32 -4 -53 -10 -50 -16 3 -5 14 -9 25 -9 62 4 239 25
243 29 7 6 -146 4 -218 -4z"/>
<path d="M3895 2521 c108 -19 230 -30 238 -22 16 16 -11 21 -150 26 -97 3
-123 2 -88 -4z"/>
<path d="M2667 2492 c-25 -27 -22 -29 27 -18 35 8 43 13 34 23 -15 18 -42 16
-61 -5z"/>
<path d="M4145 2499 c-9 -13 -9 -13 43 -26 l43 -11 -22 24 c-24 25 -53 31 -64
13z"/>
<path d="M2868 2433 c7 -3 16 -2 19 1 4 3 -2 6 -13 5 -11 0 -14 -3 -6 -6z"/>
<path d="M2170 2311 c0 -5 5 -13 10 -16 6 -3 10 -2 10 4 0 5 -4 13 -10 16 -5
3 -10 2 -10 -4z"/>
</g>
</svg>
